PathFileType	4	(X/Y/Z)	D:\TRACE\v60_Jaco2_6-2-23\ArmBodyNoDRS_DMP_1-platform.trc
DataRate	CameraRate	NumFrames	NumMarkers	Units	OrigDataRate	OrigDataStartFrame	OrigNumFrames
100.00	100.00	      83	5	mm	100.00	2658	      5315
Frame#	Time	Left_Front			Right_Front			Left_Aft			Right_Aft			Post			
		X1	Y1	Z1	X2	Y2	Z2	X3	Y3	Z3	X4	Y4	Z4	X5	Y5	Z5	

2658	26.570				780.32996	9.87946	-632.78833	-719.45032	6.76680	480.99432	698.15674	8.94613	583.36139	3.09357	1307.52588	-965.99939	
2659	26.580				780.30341	9.73877	-632.74658	-719.51288	6.74075	481.01855	698.09607	8.95808	583.31958	3.24544	1307.41467	-965.89380	
2660	26.590				780.28833	9.68818	-632.78033	-719.19946	6.25705	481.21768	698.14001	8.94968	583.32635	3.22398	1307.42993	-965.87024	
2661	26.600				780.21387	9.74722	-632.78076	-719.45306	6.69041	481.10800	698.14935	8.93838	583.38715	3.32539	1307.40320	-965.78583	
2662	26.610				780.29248	9.83289	-632.79565	-719.08130	6.28198	481.20337	698.17670	8.93712	583.37042	3.23237	1307.55408	-965.91217	
2663	26.620				780.32874	9.85826	-632.74451	-719.15985	6.42058	481.11292	698.11407	8.94462	583.33301	3.21677	1307.58655	-965.99939	
2664	26.630				780.28564	9.87226	-632.79675	-719.20172	6.38464	481.10730	698.16949	8.93190	583.30280	3.20567	1307.57751	-966.00861	
2665	26.640				780.21136	9.76276	-632.71613	-719.54565	6.73000	481.04031	697.69543	8.46423	583.03955	3.11949	1307.48547	-966.00793	
2666	26.650				780.30011	9.71667	-632.70959	-719.19360	6.25216	481.19684	697.63037	8.37739	583.09491	3.17347	1307.42529	-965.99091	
2667	26.660				780.38629	9.79386	-632.69775	-719.10999	6.25572	481.16800	697.43506	8.21600	583.02484	3.27322	1307.46765	-965.95239	
2668	26.670				780.38684	9.83415	-632.71320	-719.15729	6.41816	481.09924	697.26483	8.04887	582.82831	3.17632	1307.50037	-965.97974	
2669	26.680				780.35193	9.82698	-632.71692	-719.18646	6.37114	481.07330	697.29315	8.08612	582.87909	3.21000	1307.49878	-966.02533	
2670	26.690				780.29114	9.76370	-632.76300	-719.50098	6.73997	481.01117	696.97614	7.83859	582.95465	3.26608	1307.47937	-965.94360	
2671	26.700				780.28143	9.73476	-632.74060	-719.51239	6.72038	481.07272	698.15808	8.93307	583.34692	3.20305	1307.40991	-965.92719	
2672	26.710				780.33893	9.77883	-632.72388	-719.46899	6.70451	481.10526	698.15759	8.93704	583.36334	3.16976	1307.44495	-965.98987	
2673	26.720				780.34033	9.87665	-632.74042	-719.46002	6.76160	481.04773	698.16547	8.93332	583.35260	3.18148	1307.49146	-965.95575	
2674	26.730				780.28210	9.84651	-632.77521	-719.18011	6.34954	481.09857	698.13141	8.94718	583.35840	3.15381	1307.57410	-966.01379	
2675	26.740				780.38617	9.78361	-632.72687	-719.15082	6.25960	481.13696	698.13873	8.93475	583.29968	3.16627	1307.50244	-965.99689	
2676	26.750				780.25806	9.73265	-632.78040	-719.18335	6.26037	481.19406	698.12958	8.93257	583.33887	3.20402	1307.49329	-965.92065	
2677	26.760				780.22571	9.84343	-632.74756	-719.49188	6.67004	481.09338	698.10010	8.94007	583.34552	3.21100	1307.45276	-965.90271	
2678	26.770				780.27240	9.90881	-632.75464	-719.47888	6.73838	481.07016	698.10199	8.99996	583.32336	3.20076	1307.44666	-965.92786	
2679	26.780				780.33356	9.73621	-632.70636	-719.17670	6.36716	481.14032	698.09705	9.00348	583.33490	3.06432	1307.51294	-966.00183	
2680	26.790				780.39417	9.32933	-632.80078	-719.18646	6.31921	481.04288	698.07098	8.99782	583.34576	3.00336	1307.53699	-965.97772	
2681	26.800				780.30396	9.62856	-632.69623	-719.49817	6.75097	481.00589	698.12567	8.99670	583.37976	3.20039	1307.47815	-965.98730	
2682	26.810				780.21924	9.73174	-632.76666	-719.19812	6.25622	481.16223	698.13000	8.93750	583.43829	3.36408	1307.43213	-965.95557	
2683	26.820				780.21680	9.68795	-632.79095	-719.47601	6.72281	481.08658	698.15356	8.96052	583.42554	3.10181	1307.52014	-966.05536	
2684	26.830				780.25787	9.65554	-632.77448	-719.48657	6.77485	480.98523	698.12384	8.96196	583.38947	3.07296	1307.65320	-966.18176	
2685	26.840				780.32861	9.72270	-632.73224	-719.45520	6.79092	480.98676	698.10486	8.93986	583.33374	2.97921	1307.58728	-966.16931	
2686	26.850				780.20538	9.76665	-632.77454	-719.51141	6.72506	480.80859	698.02319	9.02542	583.35571	3.23105	1307.49377	-966.04346	
2687	26.860				780.24469	9.54258	-632.70563	-719.48920	6.71244	480.87454	698.08685	9.01948	583.37439	3.26392	1307.37109	-965.88177	
2688	26.870				780.29431	9.53151	-632.66168	-719.47430	6.76511	480.92447	698.05927	8.97704	583.38507	3.26288	1307.38879	-965.83411	
2689	26.880				780.27612	9.66525	-632.71942	-719.61145	6.96118	480.94318	698.09857	8.96308	583.39386	3.14442	1307.47339	-965.90033	
2690	26.890				780.23126	9.73514	-632.80536	-719.42603	6.81845	480.83884	698.03632	9.05271	583.36029	3.09498	1307.56152	-966.01440	
2691	26.900				780.24463	9.75100	-632.77594	-719.59729	6.93386	480.86261	698.04364	9.01015	583.33405	2.98592	1307.58301	-965.99878	
2692	26.910				780.21136	9.54331	-632.71667	-719.50647	6.73706	480.83386	698.10254	8.99495	583.34167	3.08712	1307.50269	-965.94885	
2693	26.920				780.27502	9.61884	-632.65729	-719.67468	6.90231	480.92725	698.07037	9.00432	583.37927	3.29604	1307.42993	-965.93304	
2694	26.930				780.24048	9.67351	-632.71301	-719.44800	6.74642	480.97131	698.13281	8.96718	583.39459	3.27878	1307.45911	-965.90161	
2695	26.940				780.27673	9.74309	-632.74463	-719.40106	6.78587	480.87964	698.08734	9.00026	583.41888	3.21660	1307.48877	-965.96387	
2696	26.950				780.24805	9.70717	-632.75989	-719.41492	6.76982	480.86676	698.03967	9.00483	583.34912	3.01018	1307.56055	-966.04474	
2697	26.960				780.30261	9.71304	-632.67108	-719.45618	6.75632	480.81018	698.02039	9.00793	583.34161	3.01211	1307.47583	-966.08746	
2698	26.970				780.26898	9.64694	-632.68921	-719.64832	6.93911	480.89648	698.09491	8.95534	583.34637	3.19078	1307.42859	-965.93280	
2699	26.980				780.23297	9.56719	-632.70038	-719.64337	6.91896	480.89691	698.05048	8.99611	583.40430	3.21862	1307.40784	-965.95264	
2700	26.990				780.24823	9.61369	-632.71198	-719.41412	6.76263	480.92645	698.11438	8.96347	583.40533	3.24907	1307.47815	-965.91742	
2701	27.000				780.24756	9.75161	-632.73499	-719.39679	6.79982	480.81299	698.05896	9.01333	583.35474	3.16574	1307.51978	-965.99567	
2702	27.010				780.19507	9.73224	-632.74072	-719.44342	6.80465	480.84305	698.07178	8.97569	583.31421	2.99001	1307.55457	-966.05804	
2703	27.020				780.26971	9.64494	-632.69629	-719.50476	6.80144	480.85706	698.08319	8.95236	583.30542	3.10585	1307.51453	-966.00879	
2704	27.030				780.22528	9.61076	-632.74420	-719.47040	6.68604	480.90015	698.10278	8.95089	583.33112	3.16717	1307.49207	-965.90613	
2705	27.040				780.28729	9.65402	-632.68451	-719.51202	6.69339	480.92480	698.07599	8.99206	583.43115	3.21945	1307.52100	-965.88171	
2706	27.050				780.20844	9.71712	-632.77228	-719.11963	6.26065	481.16669	698.09485	9.00694	583.38074	3.16923	1307.48633	-965.92432	
2707	27.060				780.22913	9.73189	-632.75891	-719.15308	6.28132	481.09576	698.07721	9.01020	583.36377	3.12770	1307.56470	-965.86938	
2708	27.070				780.30890	9.65283	-632.73138	-719.19635	6.28748	481.09351	698.09106	9.00879	583.36310	3.13950	1307.48718	-965.89465	
2709	27.080				780.28473	9.63360	-632.68878	-719.20679	6.28514	481.09750	698.11548	8.94477	583.36639	3.20866	1307.42993	-965.87720	
2710	27.090				780.18170	9.60079	-632.74072	-719.53357	6.71417	481.02328	698.10614	9.01332	583.38855	3.19964	1307.44458	-965.86560	
2711	27.100				780.25122	9.70857	-632.71094	-719.49170	6.75641	481.05090	698.07739	8.98752	583.38605	3.16098	1307.53638	-965.93982	
2712	27.110				780.33228	9.72803	-632.69720	-719.47491	6.74150	481.00916	698.07953	8.97569	583.37738	3.19023	1307.55420	-965.95215	
2713	27.120				780.25665	9.72873	-632.73035	-719.15070	6.25846	481.06625	698.07050	8.95737	583.35022	3.10114	1307.58215	-965.99786	
2714	27.130				780.25671	9.71867	-632.70831	-719.17773	6.26324	481.11917	698.10522	8.96490	583.37079	3.10954	1307.51733	-965.94739	
2715	27.140				780.35828	9.87761	-632.69122	-719.18658	6.26540	481.15088	698.08881	8.99568	583.38428	3.23189	1307.45740	-965.93610	
2716	27.150				780.23987	9.92162	-632.78088	-719.21448	6.36939	481.08990	698.03912	9.00502	583.33923	3.15095	1307.49670	-966.00500	
2717	27.160				780.33069	9.76563	-632.76160	-719.22150	6.39927	481.02951	698.14349	8.96508	583.28754	3.02885	1307.53442	-966.06158	
2718	27.170				780.26086	9.68286	-632.70679	-719.19458	6.36630	481.03568	697.26135	8.10797	583.02991	3.03049	1307.53137	-966.06268	
2719	27.180				780.31940	9.78693	-632.72406	-719.47717	6.73056	481.02402	697.28693	8.11502	583.06775	3.22504	1307.45154	-966.00525	
2720	27.190				780.30499	9.74014	-632.73669	-719.48499	6.68876	481.08218	697.41705	8.35982	583.25275	3.22607	1307.38000	-965.92395	
2721	27.200				780.28674	9.73901	-632.71344	-719.20532	6.27830	481.17896	697.55762	8.38157	583.30267	3.23475	1307.48584	-965.99390	
2722	27.210				780.19910	9.77074	-632.85736	-719.17859	6.39493	481.13220	697.48010	8.34648	583.19940	3.13124	1307.57483	-966.09760	
2723	27.220				780.34082	9.92063	-632.75714	-719.18140	6.36300	481.04044	697.28735	8.10495	583.04968	3.14607	1307.64978	-966.10077	
2724	27.230				780.28107	9.83582	-632.77942	-719.46631	6.75864	480.97000	697.17621	8.00491	583.01874	3.19677	1307.59607	-966.02222	
2725	27.240				780.22858	9.72263	-632.74438	-719.49908	6.72141	481.05331	698.11169	8.96643	583.35327	3.25395	1307.45850	-965.88055	
2726	27.250				780.31989	9.70749	-632.69122	-719.51105	6.69548	481.14441	698.09430	8.95051	583.36584	3.19533	1307.36401	-965.87427	
2727	27.260				780.33771	9.78059	-632.71472	-719.16925	6.35221	481.22699	698.15851	8.92248	583.36304	3.31746	1307.41321	-965.81110	
2728	27.270				780.35419	9.86868	-632.71564	-719.43481	6.78817	481.05792	698.13074	8.93363	583.34021	3.24840	1307.51599	-965.91919	
2729	27.280				780.28088	9.86019	-632.78802	-719.42242	6.72326	481.01218	698.13849	8.92627	583.32550	2.99649	1307.53821	-966.08655	
2730	27.290				780.24207	9.79685	-632.81183	-719.17676	6.31148	481.08768	698.16089	8.92680	583.32288	3.18454	1307.49756	-966.00476	
2731	27.300				780.25531	9.76486	-632.74164	-719.18787	6.23329	481.17712	698.10681	8.96401	583.34033	3.16281	1307.43811	-965.92407	
2732	27.310				780.31122	9.78892	-632.69714	-719.51001	6.72346	481.11670	698.18195	8.88508	583.40857	3.24592	1307.49109	-965.93756	
2733	27.320				780.27710	9.82434	-632.75867	-719.46552	6.80145	481.09390	698.17914	8.89955	583.40790	3.23143	1307.54944	-965.92859	
2734	27.330				780.24860	9.85307	-632.80560	-719.45648	6.80973	480.98773	698.13116	8.94092	583.32318	3.17851	1307.64893	-965.97583	
2735	27.340				780.29333	9.86348	-632.76917	-719.19904	6.40084	481.01749	698.11237	8.96212	583.29865	3.06941	1307.62561	-966.01361	
2736	27.350				780.29816	9.75807	-632.77570	-719.22705	6.34251	481.11444	698.13281	8.94790	583.33527	3.10814	1307.50891	-965.97412	
2737	27.360				780.21484	9.70680	-632.74841	-719.51538	6.72138	481.08191	698.16052	8.91353	583.33563	3.24207	1307.44702	-965.88525	
2738	27.370				780.28607	9.75315	-632.78827	-719.44763	6.74632	481.09875	698.18683	8.89737	583.37634	3.22819	1307.47693	-965.87292	
2739	27.380				780.24396	9.83246	-632.81537	-719.44690	6.77751	481.06021	698.16870	8.94491	583.36963	3.26458	1307.56409	-965.94604	
2740	27.390				780.29889	9.81881	-632.75598	-719.46558	6.78149	480.99979	698.10626	8.95767	583.36591	3.20129	1307.59973	-965.98718	
